<svg width="40" height="40" viewBox="0 0 40 40" fill="none" xmlns="http://www.w3.org/2000/svg">
<path d="M13.0806 9.18243C13.4502 9.1476 13.8221 9.22659 14.146 9.40802L29.9009 18.3983L29.9116 18.4041H29.9146C30.1917 18.5632 30.4224 18.792 30.5835 19.0682C30.7464 19.3476 30.8325 19.6656 30.8325 19.9891C30.8325 20.3126 30.7465 20.6305 30.5835 20.91C30.4205 21.1894 30.1863 21.4205 29.9048 21.5799L14.1548 30.5867L14.1519 30.5887L14.147 30.5926C13.8731 30.7466 13.5637 30.8263 13.2495 30.827C12.9576 30.8267 12.6698 30.7581 12.4106 30.6238C12.1514 30.4896 11.928 30.2948 11.7593 30.0565C11.5905 29.818 11.4813 29.5421 11.4409 29.2527C11.4006 28.9635 11.43 28.6688 11.5269 28.3934V28.3924L14.3569 20.0154L14.3618 19.9998L14.3569 19.9852L11.5269 11.6072L11.4858 11.4744C11.4025 11.1622 11.4038 10.8326 11.4897 10.5193C11.5879 10.1613 11.7924 9.8411 12.0767 9.60236C12.3608 9.36376 12.7111 9.21731 13.0806 9.18243ZM13.8784 11.8328L16.2632 18.8904L16.2739 18.9217H21.5005C21.7862 18.9218 22.0601 19.036 22.2622 19.2381C22.4643 19.4402 22.5786 19.714 22.5786 19.9998C22.5786 20.2858 22.4644 20.5603 22.2622 20.7625C22.0601 20.9645 21.7862 21.0778 21.5005 21.0779H16.2739L16.2632 21.1102L13.8794 28.1658L13.8403 28.283L13.9478 28.2215L28.2681 20.0301L28.3394 19.9901L28.2681 19.949L13.9468 11.7772L13.8394 11.7156L13.8784 11.8328Z" fill="#4F46E5" stroke="#4F46E5" stroke-width="0.09375"/>
</svg>
