<svg width="24" height="24" viewBox="0 0 24 24" fill="none" xmlns="http://www.w3.org/2000/svg">
<path d="M12 2.67188C12.2859 2.67188 12.5605 2.78512 12.7627 2.9873C12.9649 3.18949 13.0781 3.46406 13.0781 3.75V10.9219H20.25C20.5359 10.9219 20.8105 11.0351 21.0127 11.2373C21.2149 11.4395 21.3281 11.7141 21.3281 12C21.3281 12.2859 21.2149 12.5605 21.0127 12.7627C20.8105 12.9649 20.5359 13.0781 20.25 13.0781H13.0781V20.25C13.0781 20.5359 12.9649 20.8105 12.7627 21.0127C12.5605 21.2149 12.2859 21.3281 12 21.3281C11.7141 21.3281 11.4395 21.2149 11.2373 21.0127C11.0351 20.8105 10.9219 20.5359 10.9219 20.25V13.0781H3.75C3.46406 13.0781 3.18949 12.9649 2.9873 12.7627C2.78512 12.5605 2.67188 12.2859 2.67188 12C2.67188 11.7141 2.78512 11.4395 2.9873 11.2373C3.18949 11.0351 3.46406 10.9219 3.75 10.9219H10.9219V3.75C10.9219 3.46406 11.0351 3.18949 11.2373 2.9873C11.4395 2.78512 11.7141 2.67188 12 2.67188Z" fill="#94A3B8" stroke="#94A3B8" stroke-width="0.09375"/>
</svg>
