<svg width="24" height="24" viewBox="0 0 24 24" fill="none" xmlns="http://www.w3.org/2000/svg">
<path d="M12 1.17188C13.2805 1.17188 14.5086 1.68049 15.4141 2.58594C16.3195 3.49139 16.8281 4.7195 16.8281 6V12L16.8223 12.2393C16.7618 13.4321 16.2607 14.5635 15.4121 15.4121C14.507 16.3172 13.28 16.8266 12 16.8281L11.7607 16.8223C10.5679 16.7618 9.43647 16.2607 8.58789 15.4121C7.68276 14.507 7.17336 13.28 7.17188 12V6C7.17188 4.7195 7.68049 3.49139 8.58594 2.58594C9.49139 1.68049 10.7195 1.17188 12 1.17188ZM12 3.32812C11.2914 3.32812 10.6114 3.60928 10.1104 4.11035C9.60928 4.61143 9.32812 5.29137 9.32812 6V12C9.32812 12.7086 9.60928 13.3886 10.1104 13.8896C10.6114 14.3907 11.2914 14.6719 12 14.6719C12.7086 14.6719 13.3886 14.3907 13.8896 13.8896C14.3907 13.3886 14.6719 12.7086 14.6719 12V6C14.6719 5.29137 14.3907 4.61143 13.8896 4.11035C13.3886 3.60928 12.7086 3.32812 12 3.32812ZM10.9219 20.5107L10.8809 20.5059C8.8185 20.2317 6.92551 19.2175 5.55371 17.6533C4.18207 16.0891 3.42453 14.0804 3.42188 12C3.42188 11.7141 3.53512 11.4395 3.7373 11.2373C3.93949 11.0351 4.21406 10.9219 4.5 10.9219C4.78594 10.9219 5.06051 11.0351 5.2627 11.2373C5.46488 11.4395 5.57812 11.7141 5.57812 12C5.57812 13.7032 6.25465 15.3367 7.45898 16.541C8.66332 17.7453 10.2968 18.4219 12 18.4219C13.7032 18.4219 15.3367 17.7453 16.541 16.541C17.7454 15.3367 18.4219 13.7032 18.4219 12C18.4219 11.7141 18.5351 11.4395 18.7373 11.2373C18.9395 11.0351 19.2141 10.9219 19.5 10.9219C19.7859 10.9219 20.0605 11.0351 20.2627 11.2373C20.4649 11.4395 20.5781 11.7141 20.5781 12L20.5684 12.3887C20.478 14.3295 19.7323 16.1868 18.4463 17.6533C17.0745 19.2175 15.1815 20.2317 13.1191 20.5059L13.0781 20.5107V22.5C13.0781 22.7859 12.9649 23.0605 12.7627 23.2627C12.5605 23.4649 12.2859 23.5781 12 23.5781C11.7141 23.5781 11.4395 23.4649 11.2373 23.2627C11.0351 23.0605 10.9219 22.7859 10.9219 22.5V20.5107Z" fill="#94A3B8" stroke="#94A3B8" stroke-width="0.09375"/>
</svg>
