<svg width="20" height="20" viewBox="0 0 20 20" fill="none" xmlns="http://www.w3.org/2000/svg">
<path d="M18.1633 16.8367L14.4532 13.125C15.5656 11.6754 16.085 9.85688 15.9059 8.0384C15.7268 6.21992 14.8628 4.53764 13.489 3.33281C12.1152 2.12798 10.3345 1.49083 8.50825 1.5506C6.68196 1.61037 4.94678 2.36259 3.6547 3.65466C2.36263 4.94674 1.61041 6.68192 1.55064 8.50821C1.49087 10.3345 2.12802 12.1152 3.33285 13.4889C4.53768 14.8627 6.21996 15.7268 8.03844 15.9059C9.85691 16.0849 11.6754 15.5656 13.125 14.4531L16.8383 18.1672C16.9255 18.2544 17.0291 18.3236 17.143 18.3708C17.2569 18.418 17.3791 18.4423 17.5024 18.4423C17.6257 18.4423 17.7478 18.418 17.8618 18.3708C17.9757 18.3236 18.0792 18.2544 18.1665 18.1672C18.2537 18.08 18.3228 17.9765 18.37 17.8625C18.4172 17.7486 18.4415 17.6265 18.4415 17.5031C18.4415 17.3798 18.4172 17.2577 18.37 17.1437C18.3228 17.0298 18.2537 16.9263 18.1665 16.8391L18.1633 16.8367ZM3.43755 8.75001C3.43755 7.69929 3.74912 6.67218 4.33286 5.79854C4.91661 4.9249 5.74631 4.24399 6.71704 3.8419C7.68777 3.43981 8.75594 3.3346 9.78646 3.53959C10.817 3.74457 11.7636 4.25054 12.5066 4.9935C13.2495 5.73647 13.7555 6.68307 13.9605 7.71359C14.1655 8.74411 14.0602 9.81228 13.6582 10.783C13.2561 11.7537 12.5751 12.5834 11.7015 13.1672C10.8279 13.7509 9.80076 14.0625 8.75005 14.0625C7.34153 14.0611 5.99111 13.5009 4.99514 12.5049C3.99917 11.5089 3.43899 10.1585 3.43755 8.75001Z" fill="#8B99AC"/>
</svg>
